# xmcd CD database file
# Copyright (C) 1993-1998 Ti Kan
#
# Track frame offsets:
#  150
#  19008
#  37191
#  55277
#  70833
#  90579
#  109517
#  125555
#  145041
#  165716
#  186014
#
# Disc length: 2680 seconds
#
# Revision: 1
# Processed by: cddbd v1.4b41PL1 Copyright (c) Steve Scherf et al.
# Submitted via: CDWizzard Release:4.35
#
DISCID=920a760b
DTITLE=Romeo - Romeo
DYEAR=1900
DGENRE=
TTITLE0=Always fall for Love
TTITLE1=Got to be
TTITLE2=Secret Love
TTITLE3=Your Love
TTITLE4=The one for me
TTITLE5=Like someone in love
TTITLE6=Coming home
TTITLE7=I don't wanna talk about it
TTITLE8=When you put your lips to mine
TTITLE9=Trippin' on you
TTITLE10=Your love (Live remix)
EXTD=
EXTT0=
EXTT1=
EXTT2=
EXTT3=
EXTT4=
EXTT5=
EXTT6=
EXTT7=
EXTT8=
EXTT9=
EXTT10=
PLAYORDER=
